<svg width="110" height="87" viewBox="0 0 110 87" fill="none" xmlns="http://www.w3.org/2000/svg">
<path d="M108.034 13.7498V17.6783H84.4632V13.7498C84.4632 10.6241 85.7049 7.62637 87.9152 5.41615C90.1254 3.20592 93.1231 1.96423 96.2488 1.96423C99.3745 1.96423 102.372 3.20592 104.582 5.41615C106.793 7.62637 108.034 10.6241 108.034 13.7498Z" fill="#C0C0C0"/>
<path d="M72.6777 84.4632H13.7498C10.6241 84.4632 7.6264 83.2215 5.41618 81.0113C3.20595 78.8011 1.96426 75.8034 1.96426 72.6777V68.7491H60.8921V72.6777C60.8921 75.8034 62.1338 78.8011 64.344 81.0113C66.5542 83.2215 69.5519 84.4632 72.6777 84.4632Z" fill="#C0C0C0"/>
<path d="M96.2488 1.96423C93.1231 1.96423 90.1254 3.20592 87.9152 5.41615C85.7049 7.62637 84.4632 10.6241 84.4632 13.7498V40.9548L72.6777 44.3137V61.1671C72.6762 64.8065 73.499 68.3991 75.0843 71.6751C76.6696 74.9512 78.9762 77.8257 81.8311 80.0829C81.5721 80.4046 81.2968 80.7127 81.0061 81.0061C79.9167 82.1061 78.6193 82.9782 77.1894 83.5718C75.7595 84.1653 74.2258 84.4683 72.6777 84.4632C69.5519 84.4632 66.5542 83.2215 64.344 81.0113C62.1338 78.8011 60.8921 75.8034 60.8921 72.6777V68.7491H25.5354V13.7498C25.5354 10.6241 26.7771 7.62637 28.9873 5.41615C31.1975 3.20592 34.1952 1.96423 37.321 1.96423H96.2488Z" fill="white"/>
<path d="M108.034 44.3137V61.167C108.026 66.4454 106.295 71.5767 103.104 75.7815C99.9135 79.9862 95.4374 83.0345 90.356 84.4632C87.2529 83.5806 84.3555 82.0919 81.8311 80.0829C78.9762 77.8256 76.6696 74.9511 75.0843 71.6751C73.499 68.399 72.6762 64.8065 72.6777 61.167V44.3137L84.4632 40.9548L90.356 39.2852L108.034 44.3137Z" fill="#E55D25"/>
<path d="M108.034 43.2136V61.167C108.034 65.5544 106.837 69.8586 104.574 73.6171C102.311 77.3756 99.0657 80.4462 95.1881 82.4989H85.524C83.257 81.3093 81.2 79.7567 79.4347 77.9025C87.3033 76.3746 94.4192 72.2185 99.6157 66.1156C104.812 60.0126 107.781 52.3251 108.034 44.3136C108.034 43.9404 108.034 43.5868 108.034 43.2136Z" fill="#BD4B1C"/>
<path d="M108.034 19.6426H84.4633C83.9423 19.6426 83.4427 19.4357 83.0743 19.0673C82.7059 18.6989 82.499 18.1993 82.499 17.6784V13.7498C82.499 10.1032 83.9476 6.60583 86.5262 4.02723C89.1048 1.44864 92.6021 0 96.2488 0C99.8955 0 103.393 1.44864 105.971 4.02723C108.55 6.60583 109.999 10.1032 109.999 13.7498V17.6784C109.999 18.1993 109.792 18.6989 109.423 19.0673C109.055 19.4357 108.555 19.6426 108.034 19.6426ZM86.4275 15.7141H106.07V13.7498C106.07 11.1451 105.035 8.64697 103.194 6.80512C101.352 4.96327 98.8536 3.92852 96.2488 3.92852C93.6441 3.92852 91.146 4.96327 89.3041 6.80512C87.4623 8.64697 86.4275 11.1451 86.4275 13.7498V15.7141Z" fill="#2B2B4C"/>
<path d="M72.6777 86.4277H39.2852C38.7643 86.4277 38.2647 86.2207 37.8963 85.8523C37.5279 85.484 37.321 84.9843 37.321 84.4634C37.321 83.9424 37.5279 83.4428 37.8963 83.0744C38.2647 82.7061 38.7643 82.4991 39.2852 82.4991H63.0724C61.7626 81.2204 60.7213 79.693 60.0096 78.0065C59.2979 76.32 58.9301 74.5083 58.9278 72.6778V70.7136H3.92852V72.6778C3.92852 75.2826 4.96326 77.7807 6.80512 79.6225C8.64697 81.4644 11.1451 82.4991 13.7498 82.4991H31.4282C31.9491 82.4991 32.4488 82.7061 32.8171 83.0744C33.1855 83.4428 33.3924 83.9424 33.3924 84.4634C33.3924 84.9843 33.1855 85.484 32.8171 85.8523C32.4488 86.2207 31.9491 86.4277 31.4282 86.4277H13.7498C10.1031 86.4277 6.60583 84.979 4.02723 82.4004C1.44864 79.8218 0 76.3245 0 72.6778V68.7493C0 68.2283 0.206949 67.7287 0.575319 67.3604C0.94369 66.992 1.44331 66.785 1.96426 66.785H60.8921C61.4131 66.785 61.9127 66.992 62.2811 67.3604C62.6494 67.7287 62.8564 68.2283 62.8564 68.7493V72.6778C62.8564 75.2826 63.8911 77.7807 65.733 79.6225C67.5748 81.4644 70.0729 82.4991 72.6777 82.4991C73.1986 82.4991 73.6982 82.7061 74.0666 83.0744C74.435 83.4428 74.6419 83.9424 74.6419 84.4634C74.6419 84.9843 74.435 85.484 74.0666 85.8523C73.6982 86.2207 73.1986 86.4277 72.6777 86.4277Z" fill="#2B2B4C"/>
<path d="M72.6777 49.1065C72.1567 49.1065 71.6571 48.8996 71.2887 48.5312C70.9204 48.1629 70.7134 47.6632 70.7134 47.1423V44.3137C70.6971 43.8729 70.8297 43.4393 71.0898 43.083C71.3499 42.7267 71.7225 42.4683 72.1473 42.3495L82.499 39.4817V13.7498C82.4894 11.941 82.8426 10.1486 83.5376 8.47855C84.2326 6.80852 85.2553 5.29476 86.5454 4.02674V3.92852H37.321C34.7162 3.92852 32.2181 4.96327 30.3763 6.80512C28.5344 8.64697 27.4997 11.1451 27.4997 13.7498C27.4997 14.2708 27.2927 14.7704 26.9243 15.1388C26.556 15.5071 26.0564 15.7141 25.5354 15.7141C25.0144 15.7141 24.5148 15.5071 24.1465 15.1388C23.7781 14.7704 23.5711 14.2708 23.5711 13.7498C23.5711 10.1031 25.0198 6.60583 27.5984 4.02723C30.177 1.44864 33.6743 0 37.321 0H96.2488C96.7698 0 97.2694 0.206949 97.6378 0.575319C98.0061 0.94369 98.2131 1.44331 98.2131 1.96426C98.2131 2.48522 98.0061 2.98483 97.6378 3.3532C97.2694 3.72157 96.7698 3.92852 96.2488 3.92852C93.644 3.92852 91.146 4.96327 89.3041 6.80512C87.4622 8.64697 86.4275 11.1451 86.4275 13.7498V40.9549C86.4438 41.3957 86.3112 41.8293 86.0511 42.1856C85.791 42.5419 85.4185 42.8003 84.9936 42.9191L74.6419 45.7869V47.1423C74.6419 47.6632 74.435 48.1629 74.0666 48.5312C73.6982 48.8996 73.1986 49.1065 72.6777 49.1065Z" fill="#2B2B4C"/>
<path d="M72.6777 86.4275C69.031 86.4275 65.5337 84.9788 62.9551 82.4002C60.3765 79.8217 58.9278 76.3243 58.9278 72.6776V70.7134H25.5354C25.0144 70.7134 24.5148 70.5064 24.1465 70.1381C23.7781 69.7697 23.5711 69.2701 23.5711 68.7491V21.6068C23.5711 21.0859 23.7781 20.5863 24.1465 20.2179C24.5148 19.8495 25.0144 19.6426 25.5354 19.6426C26.0564 19.6426 26.556 19.8495 26.9243 20.2179C27.2927 20.5863 27.4997 21.0859 27.4997 21.6068V66.7849H60.8921C61.4131 66.7849 61.9127 66.9918 62.2811 67.3602C62.6494 67.7285 62.8564 68.2282 62.8564 68.7491V72.6776C62.854 74.5474 63.3853 76.379 64.388 77.9572C65.3907 79.5353 66.823 80.7945 68.5167 81.5867C70.2103 82.3788 72.0949 82.6711 73.949 82.4291C75.803 82.187 77.5494 81.4208 78.983 80.2204C76.3666 77.7853 74.2816 74.836 72.8586 71.5573C71.4356 68.2786 70.7052 64.7412 70.7134 61.1671V54.9993C70.7134 54.4783 70.9204 53.9787 71.2887 53.6103C71.6571 53.242 72.1567 53.035 72.6777 53.035C73.1986 53.035 73.6983 53.242 74.0666 53.6103C74.435 53.9787 74.6419 54.4783 74.6419 54.9993V61.1671C74.6318 64.5155 75.3834 67.8225 76.8399 70.8376C78.2964 73.8527 80.4197 76.497 83.049 78.5704C83.2566 78.7257 83.4287 78.9233 83.554 79.1502C83.6793 79.3771 83.7549 79.6281 83.7758 79.8865C83.8064 80.144 83.7857 80.405 83.7149 80.6545C83.6441 80.904 83.5246 81.137 83.3633 81.34C83.0633 81.7119 82.7419 82.0661 82.4008 82.4007C81.1311 83.6872 79.6166 84.7063 77.9467 85.3979C76.2767 86.0895 74.4851 86.4396 72.6777 86.4275Z" fill="#2B2B4C"/>
<path d="M72.6777 21.607H37.321C36.8 21.607 36.3004 21.4 35.932 21.0317C35.5637 20.6633 35.3567 20.1637 35.3567 19.6427C35.3567 19.1218 35.5637 18.6222 35.932 18.2538C36.3004 17.8854 36.8 17.6785 37.321 17.6785H72.6777C73.1986 17.6785 73.6983 17.8854 74.0666 18.2538C74.435 18.6222 74.6419 19.1218 74.6419 19.6427C74.6419 20.1637 74.435 20.6633 74.0666 21.0317C73.6983 21.4 73.1986 21.607 72.6777 21.607Z" fill="#8D8D8D"/>
<path d="M72.6777 33.3923H37.321C36.8 33.3923 36.3004 33.1853 35.932 32.817C35.5637 32.4486 35.3567 31.949 35.3567 31.428C35.3567 30.9071 35.5637 30.4074 35.932 30.0391C36.3004 29.6707 36.8 29.4637 37.321 29.4637H72.6777C73.1986 29.4637 73.6983 29.6707 74.0666 30.0391C74.435 30.4074 74.6419 30.9071 74.6419 31.428C74.6419 31.949 74.435 32.4486 74.0666 32.817C73.6983 33.1853 73.1986 33.3923 72.6777 33.3923Z" fill="#8D8D8D"/>
<path d="M64.8206 45.178H37.321C36.8 45.178 36.3004 44.9711 35.932 44.6027C35.5637 44.2343 35.3567 43.7347 35.3567 43.2138C35.3567 42.6928 35.5637 42.1932 35.932 41.8248C36.3004 41.4565 36.8 41.2495 37.321 41.2495H64.8206C65.3416 41.2495 65.8412 41.4565 66.2096 41.8248C66.5779 42.1932 66.7849 42.6928 66.7849 43.2138C66.7849 43.7347 66.5779 44.2343 66.2096 44.6027C65.8412 44.9711 65.3416 45.178 64.8206 45.178Z" fill="#8D8D8D"/>
<path d="M64.8206 56.9637H37.321C36.8 56.9637 36.3004 56.7567 35.932 56.3884C35.5637 56.02 35.3567 55.5204 35.3567 54.9994C35.3567 54.4785 35.5637 53.9788 35.932 53.6105C36.3004 53.2421 36.8 53.0352 37.321 53.0352H64.8206C65.3416 53.0352 65.8412 53.2421 66.2096 53.6105C66.5779 53.9788 66.7849 54.4785 66.7849 54.9994C66.7849 55.5204 66.5779 56.02 66.2096 56.3884C65.8412 56.7567 65.3416 56.9637 64.8206 56.9637Z" fill="#8D8D8D"/>
<path d="M90.3561 86.4277C90.1804 86.4563 90.0013 86.4563 89.8257 86.4277C84.3264 84.8683 79.4854 81.5586 76.0365 77.0003C72.5876 72.4419 70.7188 66.8834 70.7134 61.1673V54.9995H74.642V61.1673C74.6318 64.5157 75.3834 67.8226 76.8399 70.8378C78.2965 73.8529 80.4197 76.4972 83.049 78.5706C85.2185 80.3242 87.6968 81.6566 90.3561 82.4991C94.8914 81.0821 98.8585 78.259 101.683 74.4383C104.508 70.6176 106.045 65.9974 106.07 61.2458V45.8067L90.3561 41.2496L74.642 45.7085V47.1424H70.7134V44.3139C70.6971 43.873 70.8297 43.4395 71.0899 43.0832C71.35 42.7268 71.7225 42.4684 72.1474 42.3496L89.8257 37.3211C90.1726 37.2239 90.5395 37.2239 90.8864 37.3211L108.565 42.3496C108.99 42.4684 109.362 42.7268 109.622 43.0832C109.882 43.4395 110.015 43.873 109.999 44.3139V61.1673C109.99 66.8826 108.12 72.4395 104.672 76.9973C101.223 81.555 96.3841 84.8655 90.8864 86.4277C90.7108 86.4563 90.5317 86.4563 90.3561 86.4277Z" fill="#2B2B4C"/>
<path d="M88.3918 68.7493C88.1333 68.7508 87.877 68.7013 87.6377 68.6035C87.3984 68.5058 87.1807 68.3617 86.9972 68.1797L82.0865 63.269C81.9034 63.0859 81.7581 62.8685 81.659 62.6292C81.5598 62.3899 81.5088 62.1334 81.5088 61.8744C81.5088 61.6154 81.5598 61.3589 81.659 61.1196C81.7581 60.8804 81.9034 60.6629 82.0865 60.4798C82.2696 60.2966 82.4871 60.1514 82.7264 60.0522C82.9656 59.9531 83.2221 59.9021 83.4811 59.9021C83.7401 59.9021 83.9966 59.9531 84.2359 60.0522C84.4752 60.1514 84.6926 60.2966 84.8757 60.4798L88.3918 64.0155L96.8185 55.5691C97.0016 55.386 97.219 55.2407 97.4583 55.1416C97.6976 55.0425 97.9541 54.9915 98.2131 54.9915C98.4721 54.9915 98.7286 55.0425 98.9679 55.1416C99.2071 55.2407 99.4246 55.386 99.6077 55.5691C99.7909 55.7523 99.9361 55.9697 100.035 56.209C100.134 56.4483 100.185 56.7048 100.185 56.9638C100.185 57.2228 100.134 57.4792 100.035 57.7185C99.9361 57.9578 99.7909 58.1752 99.6077 58.3584L89.7864 68.1797C89.6029 68.3617 89.3852 68.5058 89.1459 68.6035C88.9065 68.7013 88.6503 68.7508 88.3918 68.7493Z" fill="#2B2B4C"/>
</svg>
